<?xml version="1.0" encoding="UTF-8" standalone="no"?>
<svg id="svg6313" xmlns:rdf="http://www.w3.org/1999/02/22-rdf-syntax-ns#" xmlns="http://www.w3.org/2000/svg" height="247.73mm" width="141.91mm" version="1.1" xmlns:cc="http://creativecommons.org/ns#" xmlns:dc="http://purl.org/dc/elements/1.1/" viewBox="0 0 502.84251 877.78864">
<g id="layer1" transform="translate(-97.15 -70.611)">
<path id="path6257" d="m348.37 687.4c-2.1098 9.7643-14.679 18.452-32.499 24.207-36.373 12.435-76.619 23.773-102.79 40.848-21.333 14.601-25.313 32.611-24.651 49.539 0.42488 5.5525 1.5558 10.979 3.3052 16.468h313.66c7.2824-23.627 4.9174-49.818-27.397-70.09-32.098-18.874-83.95-28.649-117.96-46.634-6.2899-4.2911-10.194-9.4274-11.67-14.34zm-132.78-334.99c2.2877 3.4521 4.726 6.8262 7.3648 10.091 31.041 38.451 77.294 61.565 111.28 97.286 7.947 10.734 12.67 23.668 14.282 36.881 2.9195-24.914 18.226-47.143 39.455-60.155 32.676-25.333 70.084-49.754 93.373-84.103h-265.75zm114.89 114.17m206.61 389.33h-377.03l-1.4222-5.5579c-1.6202-6.3271-38.631-155.89 49.467-236.8 32.582-29.922 56.151-47.203 71.746-58.638 26.256-19.247 30.986-22.716 30.986-46.3 0-23.587-4.7298-27.055-30.986-46.301-15.597-11.435-39.164-28.713-71.746-58.637-88.097-80.906-51.087-230.47-49.467-236.8l1.4222-5.5596h377.03l1.4222 5.5596c1.6202 6.3255 38.631 155.89-49.465 236.8-32.585 29.924-56.154 47.202-71.749 58.637-26.256 19.245-30.986 22.713-30.986 46.301 0 23.584 4.7298 27.053 30.986 46.3 15.597 11.435 39.164 28.716 71.749 58.638 88.096 80.906 51.084 230.47 49.465 236.8l-1.4222 5.5579zm-365.37-14.782h353.72c5.697-27.507 26.081-150.14-46.385-216.69-31.981-29.369-54.239-45.686-70.491-57.602-26.942-19.751-37.025-27.142-37.025-58.219 0-31.078 10.083-38.469 37.025-58.222 16.252-11.915 38.509-28.232 70.491-57.602 72.561-66.638 52.106-189.19 46.39-216.69h-353.72c-5.6987 27.508-26.083 150.14 46.382 216.69 31.981 29.371 54.237 45.688 70.489 57.602 26.942 19.754 37.027 27.145 37.027 58.222 0 31.078-10.083 38.469-37.027 58.219-16.252 11.916-38.509 28.233-70.489 57.602-72.559 66.64-52.103 189.19-46.386 216.69zm428.28 67.841c0-21.775-17.651-39.423-39.423-39.423h-424c-21.772 0-39.423 17.648-39.423 39.423 0 21.77 17.651 39.423 39.423 39.423h424c21.772 0 39.423-17.652 39.423-39.423zm0-798.94c0-21.772-17.651-39.421-39.423-39.421h-424c-21.772 0-39.423 17.649-39.423 39.421s17.651 39.423 39.423 39.423h424c21.772 0 39.423-17.651 39.423-39.423z"/>
</g>
</svg>
