<svg xmlns="http://www.w3.org/2000/svg" viewBox="0 0 16 16">
  <defs>
    <style>.canvas{fill: none; opacity: 0;}.light-defaultgrey-10{fill: #212121; opacity: 0.1;}.light-defaultgrey{fill: #212121; opacity: 1;}</style>
  </defs>
  <title>IconLightUserFunction</title>
  <g id="canvas">
    <path class="canvas" d="M16,16H0V0H16Z" />
  </g>
  <g id="level-1">
    <path class="light-defaultgrey-10" d="M10,1.5a3,3,0,1,1-3,3A3,3,0,0,1,10,1.5Z" />
    <path class="light-defaultgrey-10" d="M6.307,9.437A4.5,4.5,0,0,1,14.5,12H8.327a1.429,1.429,0,0,0,1.119-1.407A1.409,1.409,0,0,0,8,9.192H8a1.985,1.985,0,0,0-1.3.539A1.674,1.674,0,0,0,6.307,9.437Z" />
    <path class="light-defaultgrey" d="M11.957,7.4a3.5,3.5,0,1,0-3.914,0A5.026,5.026,0,0,0,6.506,8.445c0,.021.008.039.008.059a1.474,1.474,0,0,1-.29.871,1.68,1.68,0,0,1,.482.356l.016-.012A3.995,3.995,0,0,1,14,12h1A5.007,5.007,0,0,0,11.957,7.4ZM10,7a2.5,2.5,0,1,1,2.5-2.5A2.5,2.5,0,0,1,10,7Z" />
    <path class="light-defaultgrey" d="M7.915,11.058a1.627,1.627,0,0,1-.513-.112,5.056,5.056,0,0,0-.88,1.166c.112.457.119.554.273,1.067a1.087,1.087,0,0,0,.384.571.576.576,0,0,0,.348.1,1.507,1.507,0,0,0,.268-.022.935.935,0,0,0,.263-.067l-.071.263a2.757,2.757,0,0,1-.728.246c-.46.068-.782.006-.946-.433A8.9,8.9,0,0,1,6,12.741a8.6,8.6,0,0,1-.889,1.21.912.912,0,0,1-.687.339.448.448,0,0,1-.308-.107.443.443,0,0,1-.081-.5.451.451,0,0,1,.295-.233c.357-.081.391.017.714.1a5.17,5.17,0,0,0,.866-1.138c-.031-.156-.046-.2-.138-.581-.051-.207-.122-.422-.205-.665a1.326,1.326,0,0,0-.117-.254.679.679,0,0,0-.121-.164c-.072-.063-.164-.115-.632-.1-.36.01-1.255.017-1.255.017l-.71,3.317c-.235,1.075-1.209,2.2-2.282,2a.577.577,0,0,1-.379-.219.465.465,0,0,1,.04-.536.416.416,0,0,1,.5-.08.8.8,0,0,1,.29.295c.09.144.1.159.143.232a.461.461,0,0,0,.259-.1,1.81,1.81,0,0,0,.5-.857c.136-.471.049-.105.9-4.053H1.906L2,10.3h.772a3.458,3.458,0,0,1,.3-.995,1.983,1.983,0,0,1,2-1.282.6.6,0,0,1,.384.219.356.356,0,0,1,.062.232.49.49,0,0,1-.1.313.461.461,0,0,1-.54.076c-.179-.1-.242-.277-.4-.532-.362.02-.579.477-.7.822a7.135,7.135,0,0,0-.21.839c-.029.131-.049.234-.058.308,1.082-.019,1.318-.053,1.942-.089a.685.685,0,0,1,.7.495,7.676,7.676,0,0,1,.286,1.067v.014l0,.013c.394-.622.837-1.589,1.585-1.607C8.561,10.179,8.649,11.042,7.915,11.058Z" />
  </g>
</svg>
